<?xml version="1.0" standalone="no"?><!DOCTYPE svg PUBLIC "-//W3C//DTD SVG 1.1//EN" "http://www.w3.org/Graphics/SVG/1.1/DTD/svg11.dtd"><svg t="1577667189356" class="icon" viewBox="0 0 1024 1024" version="1.1" xmlns="http://www.w3.org/2000/svg" p-id="4989" xmlns:xlink="http://www.w3.org/1999/xlink" width="64" height="64"><defs><style type="text/css"></style></defs><path d="M986.981 464.643a50.06 50.06 0 0 0-50.036 0c-7.28 4.203-13.1 10.183-17.377 17.091H811.755l-0.579-287.98-469.193-0.245-0.01-0.01-164.772 164.774h-0.327v125.18h-71.729c-8.664-14.908-24.626-25.046-43.108-25.046-27.633 0-50.037 22.404-50.037 50.038a50.038 50.038 0 0 0 25.019 43.329 50.067 50.067 0 0 0 50.034 0c6.423-3.707 11.514-8.938 15.633-14.811h74.188V830.5h472.218v-0.589l163.037-163.029-0.264-131.64h108.487c4.218 6.436 9.698 12.084 16.594 16.063a50.036 50.036 0 0 0 50.036 0 50.027 50.027 0 0 0 25.019-43.331 50.046 50.046 0 0 0-25.02-43.331zM363.88 247.262h353.523l-111.009 111.01H252.877l111.003-111.01z m231.71 529.736H230.374V535.333h32.385v-53.5h-32.385v-70.051H595.59v365.216z m162.078-131.332L649.092 754.248V535.333h28.028v-53.5h-28.028v-90.591l108.577-108.584v199.076H703.66v53.508h54.009v110.424z" fill="#ffffff" p-id="4990"></path><path d="M444.298 481.833h56.949v53.5h-56.949zM522.592 481.833h56.939v53.5h-56.939zM362.313 481.833h56.939v53.5h-56.939zM283.151 481.833H340.1v53.5h-56.949z" fill="#ffffff" p-id="4991"></path></svg>